<?xml version="1.0" encoding="utf-8"?>
<!-- Generator: Adobe Illustrator 16.0.4, SVG Export Plug-In . SVG Version: 6.00 Build 0)  -->
<!DOCTYPE svg PUBLIC "-//W3C//DTD SVG 1.0//EN" "http://www.w3.org/TR/2001/REC-SVG-20010904/DTD/svg10.dtd">
<svg version="1.0" id="Layer_1" xmlns="http://www.w3.org/2000/svg" xmlns:xlink="http://www.w3.org/1999/xlink" x="0px" y="0px"
	 width="144.137px" height="144.137px" viewBox="0 0 144.137 144.137" enable-background="new 0 0 144.137 144.137"
	 xml:space="preserve">
<g>
	<circle fill-rule="evenodd" clip-rule="evenodd" fill="#3973BF" cx="72.068" cy="72.068" r="72.068"/>
	<g>
		<path fill="#FFFFFF" d="M72.068,136.862c-35.728,0-64.795-29.066-64.795-64.794c0-35.727,29.067-64.793,64.795-64.793
			c35.728,0,64.794,29.066,64.794,64.793C136.862,107.796,107.796,136.862,72.068,136.862z M72.068,13.889
			c-32.082,0-58.182,26.1-58.182,58.18c0,32.081,26.1,58.181,58.182,58.181c32.081,0,58.181-26.1,58.181-58.181
			C130.249,39.988,104.149,13.889,72.068,13.889z"/>
	</g>
	<g>
		<polygon fill="#FFFFFF" points="105.75,66.996 72.068,43.849 41.506,57.634 74.539,82.862 		"/>
		<path fill="#FFFFFF" d="M81.075,88.907l-9.007,4.88l-0.131-8.063L38.385,59.713v10.146l33.553,28.09l9.996-5.651l-0.666-3.21
			C81.203,89.027,81.139,88.968,81.075,88.907z"/>
		<path fill="#FFFFFF" d="M85.593,81.303l-6.894,3.642c0.781,0.259,4.013,3.335,4.013,3.335l2.491,12.01l3.381-7.672l3.901,4.03
			l-2.336-12.216L85.593,81.303z"/>
		<polygon fill="#FFFFFF" points="91.578,83.498 91.699,84.135 92.155,86.518 105.75,78.831 105.75,75.543 91.351,83.343 		"/>
	</g>
</g>
</svg>
