<?xml version="1.0" encoding="utf-8"?>
<!DOCTYPE svg PUBLIC "-//W3C//DTD SVG 1.0//EN" "http://www.w3.org/TR/2001/REC-SVG-20010904/DTD/svg10.dtd">
<svg version="1.0" id="Layer_1" xmlns="http://www.w3.org/2000/svg" xmlns:xlink="http://www.w3.org/1999/xlink" x="0px" y="0px"
	viewBox="0 0 2513.301 357.035" enable-background="new 0 0 2513.301 357.035"
	 xml:space="preserve">
<title id="title">NESTLÉ A gusto con la vida</title>
<g>
	<path fill="#252B60" d="M596.536,122.158c-1.399,1.7-2.199,3.6-2.199,6.899v90.789h-0.5c0,0-49.693-88.589-52.094-92.688
		c-1.699-2.9-3.599-4.899-6.099-6.399c-2.499-1.4-5.099-2.3-10.098-2.3h-16.398c-3.8,0-6.2,1.3-7.899,3.3
		c-1.4,1.699-2.2,3.6-2.2,6.898v128.685c0,3.3,0.8,5.199,2.2,6.899c1.699,1.999,4.099,3.299,7.899,3.299h9.298
		c3.799,0,6.2-1.3,7.899-3.299c1.4-1.7,2.2-3.6,2.2-6.899v-92.988h0.5c0,0,51.593,91.389,53.693,94.788
		c2.9,4.799,7.799,8.398,14.798,8.398h15.899c3.799,0,6.199-1.3,7.898-3.299c1.401-1.7,2.2-3.6,2.2-6.899V141.256h208.874
		c2.1,0,3.7-0.6,4.899-1.6c1.301-1.199,1.899-2.8,1.899-5.199v-8.799c0-2.399-0.599-4-1.899-5.199c-1.199-1-2.799-1.601-4.899-1.601
		H604.436C600.636,118.858,598.236,120.159,596.536,122.158 M687.726,156.554c-34.697,0-54.194,27.097-54.194,55.693
		c0,30.496,20.897,57.293,54.393,57.293c16.699,0,33.096-6.299,42.494-17.397c4.1-4.8,7.4-11.499,7.4-15.599
		c0-1.399-0.3-2.6-1.099-3.499c-0.801-1-2-1.601-4.1-1.601h-16.097c-3.202,0-5.401,1.2-7,3.6
		c-4.7,6.899-11.498,10.499-21.498,10.499c-14.999,0-24.697-11.398-25.397-23.896h69.592c3.099,0,5.299-0.7,6.799-2.2
		c1.699-1.6,2.5-3.899,2.5-8.199c0-13.098-4.1-26.696-12.7-37.095C720.021,163.653,706.622,156.554,687.726,156.554
		 M795.011,156.554c-27.397,0-45.393,12.999-45.393,33.796c0,7.399,2.699,13.399,7.098,18.099c5.1,5.499,12.398,9.299,22.998,11.998
		l22.896,5.798c6.299,1.602,11.899,3.5,11.899,9c0,8.499-8.998,11.398-18.598,11.398c-4.699,0-9.597-0.899-13.597-2.899
		c-2.801-1.399-5.2-3.399-6.901-6.1c-1.498-2.299-1.998-3.999-4.299-5.299c-1.4-0.8-3.099-0.9-5.398-0.9h-12.399
		c-2.699,0-4,0.8-4.9,1.9c-0.898,1.1-1.199,2.699-1.199,4.299c0,4,1.4,8.999,4.699,13.499c7.6,10.198,23.496,18.397,43.795,18.397
		c19.998,0,47.693-8.299,47.693-35.096c0-6.899-2-12.798-5.699-17.598c-4.699-6.1-11.397-10.299-22.797-13.198l-22.697-5.8
		c-9.398-2.399-13.799-4.099-13.799-9.898c0-5.6,5-10.099,16.598-10.099c6.801,0,13,1.5,16.998,5.699
		c3.301,3.5,2.701,5.3,5.301,6.699c1.599,0.8,3.398,0.8,6.199,0.8h11.297c1.801,0,3.101-0.3,4.099-1.399
		c0.801-0.9,1.301-2.3,1.301-4.6c0-5.199-3.399-11.898-9.397-16.998C822.808,161.153,810.21,156.554,795.011,156.554
		 M857.304,160.354h-5.6c-2.099,0-3.699,0.6-4.897,1.599c-1.301,1.201-1.901,2.801-1.901,5.201v6.898c0,2.4,0.6,4,1.901,5.199
		c1.199,1,2.799,1.601,4.897,1.601h5.6v49.893c0,12.799,3.5,20.798,9.998,27.197c6,5.899,13.799,9.599,27.396,9.599h8.5
		c2.1,0,3.7-0.6,4.899-1.6c1.301-1.199,2.099-2.8,2.099-5.199v-8.699c0-2.399-0.798-3.999-2.099-5.199c-1.199-1-2.799-1.6-4.899-1.6
		h-1.199c-5.4,0-9.1-1.4-11.6-3.8c-3-2.8-4.5-7.099-4.5-12.699v-47.893h18.2c2.099,0,3.699-0.601,4.897-1.601
		c1.301-1.199,1.901-2.799,1.901-5.199v-6.898c0-2.4-0.6-4-1.901-5.201c-1.199-0.999-2.799-1.599-4.897-1.599h-18.098v-32.596
		c0-2.6-0.801-4.499-2-5.999c-1.5-1.8-3.6-2.9-6.699-2.9h-11.299c-3.1,0-5.199,1.101-6.699,2.9c-1.199,1.5-2,3.399-2,5.999V160.354z
		 M918.497,258.637c0,2.602,0.799,4.502,1.998,6.003c1.5,1.802,3.6,2.901,6.699,2.901h11.899c3.099,0,5.199-1.1,6.699-2.901
		c1.201-1.501,2-3.401,2-6.003V127.764c0-2.601-0.799-4.502-2-6.003c-1.5-1.801-3.6-2.902-6.699-2.902h-11.899
		c-3.099,0-5.199,1.102-6.699,2.902c-1.199,1.501-1.998,3.402-1.998,6.003V258.637z M662.828,200.349
		c1.3-12.299,10.698-21.497,24.997-21.497c13.998,0,23.698,9.198,24.996,21.497H662.828z M1056.079,141.256
		c2.1,0,3.699-0.6,4.899-1.6c1.3-1.199,1.9-2.8,1.9-5.199v-9.299c0-3.6-0.699-5.399-1.9-6.699c-1.1-1.2-2.899-1.899-4.899-1.899
		c-1.599,0-3.199,0.199-5.897,0.5l-79.791,7.898c-2.299,0.2-3.401,0.9-4.199,1.8c-0.901,1-1.301,2.3-1.301,4.1v5.199
		c0,2,0.399,2.9,1.101,3.699c0.899,1,2.2,1.5,3.998,1.5H1056.079z M1011.985,156.554c-34.697,0-54.193,27.097-54.193,55.693
		c0,30.496,20.897,57.293,54.393,57.293c16.697,0,33.095-6.299,42.494-17.397c4.099-4.8,7.4-11.499,7.4-15.599
		c0-1.399-0.301-2.6-1.101-3.499c-0.799-1-1.998-1.601-4.1-1.601h-16.098c-3.199,0-5.398,1.2-6.998,3.6
		c-4.699,6.899-11.5,10.499-21.498,10.499c-14.998,0-24.697-11.398-25.396-23.896h69.791c3.099,0,5.299-0.7,6.799-2.2
		c1.701-1.6,2.5-3.899,2.5-8.199c0-13.098-4.1-26.696-12.698-37.095C1044.48,163.653,1030.882,156.554,1011.985,156.554
		 M987.087,200.349c1.301-12.299,10.699-21.497,24.998-21.497c13.998,0,23.697,9.198,24.996,21.497H987.087z"/>
	<path fill="#252B60" d="M386.278,142.452c-25.88-38.61-48.629-51.619-55.029-57.742c-7.027-6.75-12.385-14.403-15.793-18.09
		c-7.581-8.278-17.391-18.503-33.532-18.503c-15.584,0-25.879,10.155-29.219,18.923c-0.973,2.503-1.74,5.565-2.434,6.678
		c-1.532,2.507-8.417,14.261-11.271,18.922h12.871l-6.261,11.827c7.303-1.599,12.521-2.783,19.479-2.783
		c6.192,0,10.643,1.463,12.591,5.358c3.617,7.237,3.617,29.148,9.74,45.64c5.705,15.508,19.618,30.675,35.271,42.292
		c0.209,0.141,0.418,0.209,0.698,0.209c0.764,0,1.25-0.555,1.25-1.112c0-0.417-0.139-0.694-0.486-1.04
		c-13.081-13.082-23.724-27.55-29.428-43.41c-5.635-15.446-4.732-37.154-9.67-46.822c-3.271-6.4-10.226-8.069-16.628-8.069
		c-5.147,0-9.948,1.043-12.174,1.529l5.635-9.53h-9.531c2.017-3.546,4.104-6.817,5.149-8.768c0.903-1.669,1.251-3.756,2.365-6.605
		c3.618-9.116,11.618-14.89,22.053-14.89c13.08,0,20.732,8.419,28.314,16.836c3.48,3.895,9.184,12.034,15.792,18.09
		c4.522,4.173,13.15,8.833,26.436,22.541c7.653,7.928,16.559,18.224,25.95,31.999c33.602,49.184,55.655,92.525,67.969,126.335
		l-0.21,0.14c-35.271-23.931-65.81-46.543-90.439-74.438c-17.462-19.827-32.627-42.786-45.846-72.073
		c-0.904-1.948-1.668-3.757-2.504-5.636c-0.348-0.765-0.695-0.974-1.251-0.974c-0.697,0-1.184,0.488-1.184,1.184
		c0,0.764,0.348,2.435,1.115,5.774c7.024,30.332,26.504,57.53,47.306,80.142c20.731,22.473,44.174,41.812,63.445,55.865
		l15.027,42.993c0.348,1.044,0.765,2.156,0.765,3.199c0,0.768-0.209,1.393-0.695,1.81c-0.417,0.417-0.972,0.626-2.225,0.626h-4.522
		c-1.948,0-2.714-0.278-3.41-0.833c-0.694-0.557-1.182-1.394-1.53-2.368c-1.323-4.036-9.253-26.646-10.781-31.238
		c-0.281-0.832-0.768-1.109-1.324-1.109c-0.696,0-1.184,0.555-1.184,1.179c0,0.56,0.21,1.184,0.559,3.134
		c2.017,10.298,4.382,21.846,5.355,26.228c0.42,2.017,0.906,3.896,0.906,5.286c0,1.252-0.279,1.95-1.323,2.993l-4.661,4.729
		c-1.113,1.111-1.738,1.39-2.643,1.39c-1.113,0-2.02-0.764-2.436-2.71c-5.288-24.7-13.288-55.308-15.375-63.797
		c-0.486-1.877-0.833-2.92-1.947-2.92c-0.973,0-1.322,0.693-1.322,1.53c0,0.624,0.14,1.39,0.209,1.949
		c1.251,8.765,6.331,40.694,11.828,69.843c0.971,5.013,2.85,7.792,7.164,7.792c1.948,0,3.825-0.765,5.565-2.433
		c2.854-2.853,3.688-3.617,7.098-6.958c2.433-2.367,4.103-3.34,8.277-3.34h10.296c2.436,0,3.756-0.624,4.94-1.738
		c1.113-1.045,1.808-2.504,1.808-4.593c0-2.154-0.555-3.894-1.321-6.051c-2.644-7.096-11.132-31.099-13.636-37.847l0.208-0.138
		c8.698,6.608,21.357,15.025,26.924,15.025c1.739,0,2.783-0.764,2.783-3.479C456.194,267.606,434.907,214.94,386.278,142.452"/>
	<path fill="#252B60" d="M147.449,61.612c1.46-3.2,4.661-5.425,8.487-5.425c5.218,0,9.392,4.035,9.392,9.392
		c0,3.128-1.462,5.845-3.757,7.513c0.486,1.811,0.833,3.409,0.833,4.938c0,5.846-3.478,9.949-9.878,12.107
		c-0.833,3.546-2.365,6.746-4.869,9.114c-4.175,4.034-8.419,4.034-8.419,5.702c0,0.906,0.628,1.462,2.367,1.462
		c7.721,0,15.304-4.312,16.21-11.478c7.374-2.507,11.825-9.951,11.825-15.862c0-1.531-0.139-2.851-0.766-4.103
		c2.02-1.951,4.384-5.29,4.384-10.229c0-4.312-1.878-8.694-5.218-11.895c-2.921-2.854-7.027-4.731-11.826-4.731
		c-6.958,0-11.48,3.759-14.052,7.444c-7.585,0-17.394,8.419-17.394,20.452h-1.044c-0.695-4.173-5.007-6.958-8.626-7.167
		c-2.922-8.764-9.531-16.277-20.383-16.277c-1.252,0-2.783,0.069-4.106,0.279c-3.199-2.926-6.746-4.731-11.687-4.731
		c-9.46,0-17.183,7.584-17.183,17.182c0,5.985,2.713,10.09,7.863,13.707c0,0-0.07,0.764-0.07,1.112
		c0,7.652,8.347,19.618,20.73,19.618c0,1.947,2.436,4.592,5.149,5.079v0.975h-1.045c-17.042,0-24.278,8.21-24.278,13.704
		c-5.08,2.089-8.349,7.721-8.349,12.938c0,10.367,7.584,17.741,17.602,17.741c3.338,0,6.747-1.32,9.113-3.132
		c1.738,0.626,3.965,0.974,6.261,0.974c4.799,0,10.157-1.667,13.915-7.167c0.556,0.072,1.042,0.072,1.597,0.072
		c6.124,0,11.41-4.037,14.193-9.322c0.696-1.319,0.973-2.363,0.973-3.132c0-0.764-0.347-1.39-1.111-1.39
		c-0.975,0-1.113,0.902-2.853,2.506c-3.896,3.548-9.879,4.869-16.001,4.869c-2.991,4.383-6.677,6.681-10.923,6.681
		c-3.13,0-5.563-0.838-8.069-2.507c-2.018,2.223-4.522,3.132-6.955,3.132c-5.497,0-9.393-3.826-9.393-9.395
		c0-3.896,2.503-7.375,5.982-8.695c0.627-6.889,8-11.549,17.185-11.549c1.18,0,2.364,0.068,3.617,0.208
		c1.39-2.223,4.73-4.59,9.46-5.217c0.975-0.139,1.739-0.208,2.298-0.486c0.556-0.278,0.833-0.834,0.833-1.463
		c0-0.554-0.208-1.042-0.764-1.39c-0.488-0.277-1.322-0.415-2.296-0.625c-4.384-0.834-9.601-3.55-12.244-10.157
		c-10.505,0-18.228-8.418-18.228-17.878v-0.628c-3.479-1.392-5.843-4.732-5.843-8.698c0-5.217,4.104-9.39,9.323-9.39
		c3.129,0,5.843,1.531,7.582,3.827c1.461-0.418,3.13-0.556,4.73-0.556c7.791,0,16.141,4.938,17.74,14.537
		c10.018,0.907,12.383,9.395,13.01,12.942c0.348,1.807,0.626,3.339,1.809,3.339c1.252,0,1.529-1.394,1.949-3.271
		c0.764-3.548,2.086-6.402,4.729-8.625C130.96,69.473,137.779,61.612,147.449,61.612"/>
	<path fill="#252B60" d="M167.693,116.153c-3.271,4.662-5.635,6.959-13.08,15.724c-9.809,11.616-14.956,21.012-23.514,41.881
		c1.392-0.139,3.409-0.278,5.637-0.278c1.113,0,2.016,0,3.478,0.069l1.042-2.225c4.802-10.297,11.27-24.212,20.316-34.927
		l3.129-3.688c9.322-10.92,15.097-17.39,18.715-32.279c1.253-5.283,2.296-10.015,5.843-13.424c3.201-3.062,7.237-4.382,11.34-4.382
		c3.479,0,6.054,0.834,9.809,2.432c3.409,1.461,4.662,1.74,8.279,1.74c1.252,0,2.157-0.069,2.991-0.139l-4.869,6.539l6.608,4.659
		c-8.279,2.436-12.66,10.436-14.122,14.125c-0.278,0.766-0.417,1.25-0.417,1.741c0,0.557,0.277,1.11,1.114,1.11
		c0.904,0,1.598-0.693,2.781-2.086c4.036-4.871,7.236-8.212,22.122-12.872l-10.502-7.931l7.929-11.617h-7.443
		c-4.73,0-7.861-0.069-11.966-1.948c-5.567-2.573-8.417-3.685-13.358-3.685c-6.052,0-11.549,2.153-16.07,6.326
		c-5.218,4.801-6.818,11.203-8.695,18.23C173.328,104.677,171.589,110.66,167.693,116.153"/>
	<path fill="#252B60" d="M183.693,163.529c-3.964,5.36-9.392,12.382-13.565,19.827c1.322,0.629,5.705,2.992,7.236,3.826
		c4.799-7.234,11.479-16.139,15.86-22.889c3.966-6.119,5.567-8.765,5.845-16.973c0.07-1.391,0.07-2.715,0.208-4.036
		c0.347-4.242,1.461-8.555,5.498-12.52c2.989-2.993,7.303-4.522,11.617-4.522c4.174,0,6.608,1.182,10.226,1.182
		c2.573,0,4.451-0.625,6.121-1.252l1.324-0.487l-3.202,7.657l7.514,3.055c-4.8,2.992-15.306,15.864-15.306,31.098
		c0,5.499,0.836,10.576,2.018,15.099c0.139,0.485,0.417,0.972,1.183,0.972c0.695,0,1.182-0.417,1.251-1.183l0.071-1.598
		c0.209-4.662,0.557-12.035,2.436-18.646c3.129-11.129,11.546-21.567,19.965-26.576l-11.965-5.216l5.147-12.592l-5.634,1.183
		c-3.409,0.694-5.914,1.319-8.906,1.319c-1.948,0-4.173-0.277-6.818-0.903c-2.017-0.486-4.175-0.902-7.234-0.902
		c-5.496,0-11.41,2.085-15.444,5.979c-7.375,7.028-7.792,14.612-8.279,21.36C190.233,154.765,188.564,156.992,183.693,163.529"/>
	<path fill="#252B60" d="M362.208,167.772c-0.488-0.624-0.904-0.903-1.461-0.903c-0.836,0-1.252,0.557-1.252,1.18
		c0,0.979,0.694,2.162,2.434,5.085c5.287,8.972,11.826,18.016,19.897,26.506c8.696,9.252,18.922,17.876,29.846,25.598l3.407,2.368
		c0.488,0.349,0.836,0.557,1.253,0.557c0.695,0,1.183-0.695,1.183-1.255c0-0.348-0.139-0.696-0.559-1.045
		c-10.155-9.25-21.076-20.521-31.304-31.374C377.649,185.932,369.441,176.889,362.208,167.772"/>
	<path fill="#252B60" d="M138.335,136.26c1.043-1.736,4.174-5.979,5.427-7.307c-5.358-10.85-14.124-21.216-17.95-25.319l-3.2,3.129
		C126.3,112.119,132.491,122.489,138.335,136.26"/>
	<path fill="#252B60" d="M87.341,73.44c-0.628-0.559-0.767-0.904-0.767-1.321c0-0.487,0.349-1.043,1.115-1.043
		c0.277,0,0.555,0.069,0.904,0.208c5.148,2.086,9.531,4.521,13.426,7.515c3.27,2.502,6.471,5.564,9.6,9.25l-2.92,3.342
		C105.081,88.395,93.394,78.591,87.341,73.44"/>
	<path fill="#252B60" d="M136.666,96.745l-3.756-2.295c2.434-5.775,5.425-11.061,8.974-15.026c2.504-2.854,4.868-5.15,7.513-7.443
		c0.626-0.486,0.974-0.904,1.599-0.904c0.697,0,1.184,0.556,1.184,1.112c0,0.278-0.139,0.624-0.418,1.042
		C147.52,79.839,139.239,92.919,136.666,96.745"/>
	<path fill="#252B60" d="M89.499,129.024c-0.905,0.351-1.323,0.559-1.809,0.559c-0.766,0-1.115-0.63-1.115-1.116
		c0-0.487,0.209-0.764,0.697-1.183c8.556-6.678,16.07-9.319,26.435-11.061l1.253,4.175L89.499,129.024z"/>
	<path fill="#252B60" d="M267.94,75.042c0-2.436,1.254-6.82,5.775-6.82c1.531,0,2.992,0.347,4.173,0.903
		c1.671,0.765,2.784,1.882,2.784,3.063c0,1.252-1.252,2.506-3.131,4.036c-1.948,1.597-4.45,3.061-6.47,3.061
		C268.639,79.285,267.94,76.986,267.94,75.042"/>
	<path fill="#252B60" d="M197.329,95.354c0-2.991,1.81-6.263,5.288-6.263c1.531,0,3.338,0.625,4.661,1.881
		c0.766,0.693,1.114,1.458,1.114,2.225c0,1.672-1.601,3.27-3.479,4.382c-1.463,0.838-2.993,1.394-4.314,1.394
		C198.443,98.973,197.329,97.646,197.329,95.354"/>
	<path fill="#252B60" d="M213.678,138.278c0-0.695,0.069-1.533,0.349-2.367c0.556-1.806,1.737-3.548,4.659-3.548
		c1.323,0,2.782,0.347,3.965,1.187c1.046,0.694,1.462,1.597,1.462,2.502c0,2.991-5.01,6.47-7.514,6.47
		C214.792,142.521,213.678,140.779,213.678,138.278"/>
	<path fill="#252B60" d="M186.268,226.071c-9.391,0-13.567-4.452-13.567-10.084c0-9.882,17.324-19.55,32.907-25.532l4.035,5.218
		c-9.602,3.823-28.939,12.037-28.939,19.13c0,2.504,1.459,4.315,7.302,4.315c10.158,0,21.081-4.94,31.167-9.879
		c0.766-0.348,1.671-0.695,2.506-0.695c1.321,0,2.157,0.417,3.13,1.807l1.67,2.296C214.722,219.118,200.041,226.071,186.268,226.071
		"/>
	<path fill="#252B60" d="M212.148,228.718c-9.183,5.146-18.715,8.556-27.131,8.556c-9.393,0-17.74-4.034-24.699-14.542
		c-2.921-4.451-5.218-10.016-8-14.954c-3.339-5.845-6.958-8.976-13.288-8.976c-5.774,0-11.409,2.368-17.392,4.94l0.278,1.321
		c0.488,2.153,1.322,3.688,3.339,3.688c0.906,0,1.81-0.414,2.296-0.555c3.339-1.048,5.775-1.952,9.184-1.952
		c5.218,0,7.721,3.065,11.271,10.577l1.32,2.784c-3.616,1.251-12.105,1.876-18.436,1.876h-2.99l0.487,2.992
		c0.209,1.251,0.695,2.293,1.739,2.785c1.251,0.626,3.06,0.695,6.192,0.695c7.93,0,13.704-0.975,17.043-1.812
		c8.558,12.734,20.315,17.603,31.656,17.603c9.669,0,19.479-3.548,28.871-8.694L212.148,228.718z"/>
	<path fill="#252B60" d="M221.607,231.849l-1.668-6.403c14.332-7.721,27.41-13.91,48.28-15.93c0.419,8-0.139,18.09,5.775,18.09
		c5.426,0,17.252-13.986,30.888-31.515c1.253,1.183,3.27,2.434,5.078,3.827l-3.478,4.521
		c-13.288,17.114-24.629,31.722-33.948,31.722c-8.697,0-11.968-10.228-12.108-17.88
		C247.141,219.605,234.619,224.056,221.607,231.849"/>
	<path fill="#252B60" d="M405.688,92.224c-5.427,0-6.958-2.994-6.958-7.237c0-8.762,5.496-21.354,8.974-28.521h-8.418
		c-4.382,8.486-21.637,35.689-30.956,46.961l5.354,5.771c5.01-5.562,10.507-15.024,16.489-24.349h1.112
		c0,0.487-0.069,1.043-0.069,1.533c0,7.861,4.035,13.701,13.984,13.701c6.124,0,15.722-3.06,24.767-6.119
		c7.513-2.572,14.399-5.22,17.808-6.192v-8.347c-3.896,1.181-11.826,4.243-20.035,7.094
		C419.114,89.509,410.626,92.224,405.688,92.224"/>
	<path fill="#252B60" d="M424.262,117.476c8.348-3.544,23.306-9.531,31.933-12.66v-8.488c-17.322,6.401-47.725,18.993-68.457,30.265
		c0.558,0.692,4.176,5.771,4.593,6.397c8.765-3.614,16.626-5.982,23.723-5.982c9.948,0,18.087,0,31.722-3.2v-6.4
		c-7.652,1.393-15.791,3.062-21.079,3.062c-3.129,0-4.035-0.42-4.035-1.461C422.662,118.382,423.081,117.965,424.262,117.476"/>
	<polygon fill="#252B60" points="242.687,162.975 278.236,162.975 275.594,156.575 246.027,156.575 	"/>
	<path fill="#252B60" d="M117.951,194.767c3.756,0,6.817-1.251,9.739-2.433c2.784-1.114,5.567-2.227,9.323-2.227
		c8.906,0,19.896,4.311,29.566,8.417c0.559,0.208,1.184,0.346,1.809,0.346c1.532,0,2.715-0.694,3.479-2.154l1.253-2.298
		c-10.645-6.189-27.618-12.8-36.454-12.8c-4.035,0-6.958,1.045-9.74,2.155c-3.132,1.256-5.844,2.575-8.695,2.575
		c-7.028,0-25.045-6.956-25.045-13.702c0-7.931,28.661-10.991,31.791-10.991l2.852-6.474c-20.799,0-45.567,7.306-45.567,16.976
		c0,2.782,1.601,4.177,1.601,6.747c0,3.479-1.601,5.846-1.601,9.742c0,2.573,1.531,5.842,3.34,8.696
		c1.948,2.99,4.243,4.938,4.243,7.443c0,1.877-1.251,4.105-1.251,8.486c0,9.391,5.356,15.1,15.791,26.299l2.088,2.223
		c-8.627,3.34-24.697,10.299-28.454,11.897c-13.01,5.428-16.279,12.034-16.279,22.472c0,4.033,0,8.625,0.279,12.729h2.503
		c5.22,0,5.844-3.128,5.844-6.12c0-2.019-0.069-4.313-0.069-6.82c0.069-5.771,0.278-10.921,9.6-15.096
		c3.758-1.666,22.192-9.182,35.897-15.027c4.035-1.738,7.792-3.197,11.967-3.197c4.662,0,10.018,2.015,16.695,5.982
		c5.637,3.338,11.551,7.86,16.21,13.077l5.913-4.521c-5.077-5.981-12.105-11.341-19.129-15.515
		c-7.028-4.173-13.289-6.605-18.577-6.605c-2.295,0-4.173,0.416-5.774,0.834c-1.878,0.485-3.618,1.041-5.843,1.041
		c-2.574,0-4.73-0.625-7.862-4.243c-1.182-1.319-8.696-9.881-10.295-12.38c-0.766-1.184-2.157-3.55-2.157-6.336
		c0-1.18,0.209-2.569,0.904-3.823c6.469,5.007,14.471,8.069,24.211,9.253l-1.323-6.609c-13.983-3.686-28.871-16-28.871-23.928
		c0-1.676,0.418-2.857,1.045-4.317C98.333,189.551,111.063,194.767,117.951,194.767"/>
	<path fill="#252B60" d="M218.062,196.021c8.764-6.193,17.809-6.887,25.114-6.887c4.383,0,9.53,0.624,14.956,1.32
		c4.383,0.555,8.348,0.972,13.079,0.972c9.532,0,19.133-3.476,23.307-5.287c1.181,1.461,3.198,3.411,4.799,4.801
		c-2.018,1.255-14.817,8.207-27.898,8.207c-5.774,0-11.269-0.692-15.999-1.319c-4.175-0.555-8.697-1.042-13.08-1.042
		c-4.799,0-14.469,1.39-20.452,4.242L218.062,196.021z"/>
	<path fill="#252B60" d="M347.25,220.856c-10.436,21.984-26.298,37.984-42.577,47.236c-7.722,4.381-14.679,7.236-29.705,7.236
		h-32.489c-11.618,0-18.922,1.529-24.626,2.991c-6.124,1.597-10.02,3.197-16.211,3.197c-9.182,0-17.671-4.521-21.775-8.834
		l7.653-6.05l-3.827-5.082c-2.225,1.603-29.426,21.708-35.132,26.229l-0.347-0.208c0.139-1.391,0.139-2.645,0.139-3.896
		c0-15.306-7.097-18.994-17.879-23.307l-7.305,4.312c14.818,4.939,18.506,8.905,18.506,19.967c0,8.767-3.132,12.243-7.653,14.889
		c-4.662,2.715-10.436,3.965-15.514,3.965c-2.156,0-3.132,0.417-3.897,1.183c-0.834,0.837-1.252,2.088-1.252,3.826v2.435h1.739
		c9.322,0,17.949-1.458,27.411-8.904l30.819-24.069c4.382,5.009,15.445,11.967,28.522,11.967c7.375,0,12.108-1.812,18.924-3.548
		c5.288-1.325,10.434-2.508,21.705-2.508h32.628c16.696,0,24.767-3.479,33.67-8.485c19.342-10.854,35.829-29.222,45.151-50.302
		C351.494,223.568,349.197,222.177,347.25,220.856"/>
	<path fill="#252B60" d="M294.865,247.016c8.417-13.499,15.931-25.463,34.367-35.201c-1.948-1.185-4.731-2.992-6.192-3.965
		c-7.165,3.127-14.262,9.389-20.313,15.719c-13.914,14.469-12.664,22.818-27.342,28.454c-3.687,1.39-8.208,2.921-13.982,4.244
		c-3.41-10.507-11.966-20.939-21.01-20.939c-6.261,0-13.497,3.266-21.845,6.953c-9.808,4.316-18.784,9.254-21.636,11.132
		l3.827,5.151c2.92-1.604,11.339-5.777,19.758-9.395c7.305-3.132,13.913-5.703,18.365-5.703c7.165,0,11.826,8.141,14.401,14.677
		c-9.392,2.227-24.836,2.784-29.497,2.784c-2.158,0-2.922,0.347-3.687,0.973c-0.696,0.628-1.253,1.739-1.6,3.271l-0.556,2.367h5.007
		c26.018,0,50.578-4.104,66.369-13.706c2.226,0.628,4.174,1.045,6.68,1.045c9.042,0,18.365-4.942,24.209-9.464
		c2.087-1.599,2.574-3.062,2.574-4.66c0-0.764-0.07-1.459-0.14-2.159l-0.278-2.709c-8.347,6.605-15.305,11.549-23.93,11.549
		C296.882,247.433,295.769,247.292,294.865,247.016"/>
</g>
<g>
	<path fill="#252B60" d="M1114.935,271.523c-11.834,0-21.515-9.675-21.515-21.513c0-11.83,9.681-21.504,21.515-21.504
		c11.827,0,21.382,9.674,21.382,21.504C1136.317,261.849,1126.762,271.523,1114.935,271.523 M1114.935,232.596
		c-9.569,0-17.419,7.854-17.419,17.415c0,9.56,7.85,17.528,17.419,17.528c9.556,0,17.406-7.969,17.406-17.528
		C1132.341,240.449,1124.491,232.596,1114.935,232.596 M1119.031,261.503c-1.139-3.3,0.448-9.555-4.208-9.555h-3.655v9.555h-5.236
		v-23.21h10.366c4.201,0,7.85,0.796,7.85,5.913c0,3.415-2.055,5.012-5.228,5.578c6.263,0.909,3.977,7.168,5.788,11.719H1119.031z
		 M1114.25,241.931h-3.082v6.486h3.306c2.384,0,4.327-0.335,4.327-3.295C1118.801,242.277,1116.634,241.931,1114.25,241.931"/>
</g>
<g>
	<g>
		<path fill="#252B60" d="M1200.268,271.241l46.06-116.271h12.239l46.381,116.271h-11.435l-12.399-31.403h-57.809l-12.244,31.403
			H1200.268z M1277.41,230.181l-25.12-65.544l-25.61,65.544H1277.41z"/>
		<path fill="#252B60" d="M1410.778,190.402h9.983c-0.316,5.477-0.804,11.919-0.804,18.198v48.468
			c0,16.102,0.804,33.019-17.07,41.398c-6.445,3.051-10.792,3.696-18.353,3.696c-14.665,0-32.052-4.992-32.052-21.741h10.475
			c1.115,9.665,12.561,12.884,22.863,12.884c12.557,0,24.151-8.855,24.475-22.385v-15.139h-0.323
			c-4.663,9.502-15.78,15.139-26.251,15.139c-24.31,0-34.778-18.515-34.778-40.74c0-21.91,9.822-42.2,34.462-42.2
			c11.753,0,20.128,5.641,26.567,14.982l0.323-0.642L1410.778,190.402z M1384.374,196.849c-17.562,0-24.962,17.713-24.962,32.529
			c0,14.813,7.567,32.693,25.279,32.693c18.523,0,25.604-17.242,25.604-33.025C1410.295,213.582,1401.758,196.849,1384.374,196.849z
			"/>
		<path fill="#252B60" d="M1493.572,190.402h9.666v62.646c0,6.286,0.481,12.725,0.802,18.193h-9.982l-0.485-11.907l-0.321-0.33
			c-5.632,9.983-14.816,14.655-25.28,14.655c-26.407,0-28.505-23.35-28.505-32.687v-50.57h9.658v52.166
			c0,14.02,8.055,22.234,21.265,22.234c15.939,0,23.184-13.358,23.184-27.87V190.402z"/>
		<path fill="#252B60" d="M1551.246,187.98c15.291,0,28.18,5.328,29.471,22.392h-10.468c-0.969-10.144-9.989-13.523-19.966-13.523
			c-9.026,0-18.192,3.544-18.192,13.037c0,11.915,15.611,10.789,37.516,18.522c8.372,2.897,13.688,10.15,13.688,18.846
			c0,18.189-16.909,26.405-33.981,26.405c-14.007,0-30.119-6.597-30.436-24.476h10.467c0.802,12.074,11.434,15.619,22.386,15.619
			c10.305,0,21.1-4.827,21.1-16.097c0-11.599-12.73-13.531-25.609-16.43c-12.731-3.066-25.605-6.775-25.605-21.744
			C1521.615,193.785,1537.074,187.98,1551.246,187.98z"/>
		<path fill="#252B60" d="M1607.147,199.255h-16.104v-8.853h16.104v-17.23l9.654-4.186v21.416h18.361v8.853h-18.361v54.113
			c-0.153,7.412,3.701,11.435,11.117,11.435c2.898,0,5.796-0.16,8.38-0.966v8.381c-3.063,0.795-6.608,1.441-9.827,1.441
			c-20.449,0-19.324-13.042-19.324-23.995V199.255z"/>
		<path fill="#252B60" d="M1718.754,230.825c0,21.258-11.914,42.834-37.686,42.834c-25.766,0-37.684-21.576-37.684-42.834
			c0-21.252,11.918-42.845,37.684-42.845C1706.84,187.98,1718.754,209.573,1718.754,230.825z M1681.069,196.849
			c-19.482,0-27.212,18.999-27.212,33.977c0,14.976,7.729,33.978,27.212,33.978c19.484,0,27.219-19.002,27.219-33.978
			C1708.288,215.848,1700.553,196.849,1681.069,196.849z"/>
		<path fill="#252B60" d="M1825.23,215.205c-0.811-12.406-8.7-18.356-22.062-18.356c-14.818,0-23.998,15.454-23.998,33.813
			c0,18.521,9.18,34.141,23.998,34.141c12.564,0,21.251-7.734,22.062-18.847h10.463c-2.563,18.521-13.198,27.703-31.562,27.703
			c-24.155,0-35.428-20.764-35.428-42.834c0-21.897,12.079-42.845,36.077-42.845c16.586,0,30.115,9.995,30.912,27.225H1825.23z"/>
		<path fill="#252B60" d="M1919.607,230.825c0,21.258-11.907,42.834-37.673,42.834c-25.769,0-37.685-21.576-37.685-42.834
			c0-21.252,11.916-42.845,37.685-42.845C1907.7,187.98,1919.607,209.573,1919.607,230.825z M1881.934,196.849
			c-19.489,0-27.213,18.999-27.213,33.977c0,14.976,7.724,33.978,27.213,33.978c19.484,0,27.212-19.002,27.212-33.978
			C1909.146,215.848,1901.418,196.849,1881.934,196.849z"/>
		<path fill="#252B60" d="M1944.602,271.241h-9.661v-62.641c0-6.279-0.489-12.722-0.811-18.198h9.992l0.479,11.919l0.313,0.319
			c5.645-9.984,14.814-14.66,25.285-14.66c26.411,0,28.517,23.354,28.517,32.694v50.566h-9.666v-52.178
			c0-14.012-8.062-22.215-21.261-22.215c-15.948,0-23.188,13.362-23.188,27.853V271.241z"/>
		<path fill="#252B60" d="M2069.752,271.241h-9.657V154.971h9.657V271.241z"/>
		<path fill="#252B60" d="M2136.754,214.236c-0.969-13.206-7.729-17.388-19.164-17.388c-10.145,0-18.523,3.051-19.811,14.005
			h-10.308c2.418-16.591,14.813-22.873,30.276-22.873c17.871,0,28.989,8.216,28.66,26.737v38.33
			c-0.156,6.286,0.493,12.725,0.812,18.193h-9.988l-0.322-11.907h-0.312l-0.492,1.111c-3.537,6.775-14.334,13.214-25.282,13.214
			c-14.979,0-26.898-9.182-26.898-24.953c0-10.961,6.607-19.328,16.271-23.361c10.79-4.67,24.792-3.062,36.558-3.696V214.236z
			 M2112.593,264.803c21.095,0,25.123-17.392,24.161-34.31c-13.692,0.493-42.362-2.085-42.362,18.213
			C2094.392,259.646,2102.77,264.803,2112.593,264.803z"/>
		<path fill="#252B60" d="M2206.993,190.402l27.859,67.484l26.888-67.484h10.634l-32.046,80.839h-10.944l-33.014-80.839H2206.993z"
			/>
		<path fill="#252B60" d="M2293.487,167.046h-11.272v-12.075h11.272V167.046z M2292.681,190.402v80.839h-9.652v-80.839H2292.681z"/>
		<path fill="#252B60" d="M2369.664,259.334l-0.321-0.648c-6.604,9.658-16.423,14.974-27.702,14.974
			c-23.984,0-33.17-22.868-33.17-43.166c0-20.92,9.186-42.513,33.17-42.513c10.797,0,22.061,5.161,27.702,14.66l0.321-0.319v-47.351
			h9.661v98.077c0,6.286,0.486,12.725,0.809,18.193h-9.985L2369.664,259.334z M2343.26,196.849
			c-18.369,0-24.332,17.071-24.332,32.529c0,14.974,4.358,35.425,22.877,35.425c21.092,0,27.537-17.549,27.537-35.906
			C2369.342,212.468,2362.097,196.849,2343.26,196.849z"/>
		<path fill="#252B60" d="M2444.571,214.236c-0.971-13.206-7.737-17.388-19.166-17.388c-10.139,0-18.527,3.051-19.81,14.005h-10.311
			c2.426-16.591,14.818-22.873,30.276-22.873c17.877,0,28.993,8.216,28.672,26.737v38.33c-0.163,6.286,0.477,12.725,0.799,18.193
			h-9.984l-0.32-11.907h-0.317l-0.479,1.111c-3.543,6.775-14.34,13.214-25.283,13.214c-14.982,0-26.905-9.182-26.905-24.953
			c0-10.961,6.61-19.328,16.271-23.361c10.789-4.67,24.8-3.062,36.559-3.696V214.236z M2420.414,264.803
			c21.092,0,25.121-17.392,24.157-34.31c-13.697,0.493-42.354-2.085-42.354,18.213
			C2402.216,259.646,2410.586,264.803,2420.414,264.803z"/>
	</g>
</g>
</svg>
